<?xml version="1.0" encoding="UTF-8" standalone="no"?>
<svg
   version="1.1"
   id="svg2"
   viewBox="0 0 32 32"
   sodipodi:docname="system.svg"
   inkscape:version="1.1.2 (0a00cf5339, 2022-02-04, custom)"
   width="32"
   height="32"
   xmlns:inkscape="http://www.inkscape.org/namespaces/inkscape"
   xmlns:sodipodi="http://sodipodi.sourceforge.net/DTD/sodipodi-0.dtd"
   xmlns="http://www.w3.org/2000/svg"
   xmlns:svg="http://www.w3.org/2000/svg"
   xmlns:rdf="http://www.w3.org/1999/02/22-rdf-syntax-ns#"
   xmlns:cc="http://creativecommons.org/ns#"
   xmlns:dc="http://purl.org/dc/elements/1.1/">
  <sodipodi:namedview
     pagecolor="#090909"
     bordercolor="#666666"
     borderopacity="1"
     objecttolerance="10"
     gridtolerance="10"
     guidetolerance="10"
     inkscape:pageopacity="0"
     inkscape:pageshadow="2"
     inkscape:window-width="1920"
     inkscape:window-height="1022"
     id="namedview78"
     showgrid="false"
     inkscape:zoom="36.82666"
     inkscape:cx="130.50328"
     inkscape:cy="158.6215"
     inkscape:window-x="0"
     inkscape:window-y="0"
     inkscape:window-maximized="1"
     inkscape:current-layer="22-22-system-log-out"
     showguides="false"
     inkscape:guide-bbox="true"
     inkscape:lockguides="false"
     inkscape:snap-bbox="true"
     inkscape:bbox-nodes="true"
     inkscape:snap-nodes="false"
     inkscape:snap-intersection-paths="true"
     inkscape:pagecheckerboard="0"
     inkscape:showpageshadow="false">
    <inkscape:grid
       type="xygrid"
       id="grid885"
       originx="68"
       originy="73" />
    <sodipodi:guide
       position="108,-55"
       orientation="0.70710678,0.70710678"
       id="guide948"
       inkscape:locked="false" />
    <sodipodi:guide
       position="106,-57"
       orientation="-0.70710678,0.70710678"
       id="guide950"
       inkscape:locked="false" />
  </sodipodi:namedview>
  <metadata
     id="metadata62">
    <rdf:RDF>
      <cc:Work
         rdf:about="">
        <dc:format>image/svg+xml</dc:format>
        <dc:type
           rdf:resource="http://purl.org/dc/dcmitype/StillImage" />
      </cc:Work>
    </rdf:RDF>
  </metadata>
  <defs
     id="defs3051">
    <style
       type="text/css"
       id="current-color-scheme" />
    <linearGradient
       gradientUnits="userSpaceOnUse"
       y2="31"
       y1="1"
       x2="16"
       x1="16"
       id="a">
      <stop
         id="stop929"
         offset="0"
         stop-color="#37414a" />
      <stop
         id="stop931"
         offset="1"
         stop-color="#6c7582" />
    </linearGradient>
    <filter
       color-interpolation-filters="sRGB"
       height="1.072"
       width="1.072"
       y="-0.035999998"
       x="-0.035999998"
       id="c">
      <feGaussianBlur
         id="feGaussianBlur934"
         stdDeviation="0.45000001" />
    </filter>
    <filter
       color-interpolation-filters="sRGB"
       height="1.072"
       width="1.072"
       y="-0.035999998"
       x="-0.035999998"
       id="b">
      <feGaussianBlur
         id="feGaussianBlur937"
         stdDeviation="0.285" />
    </filter>
    <linearGradient
       gradientUnits="userSpaceOnUse"
       y2="31"
       y1="1"
       x2="16"
       x1="16"
       id="a-3">
      <stop
         id="stop969"
         offset="0"
         stop-color="#4d83f3" />
      <stop
         id="stop971"
         offset="1"
         stop-color="#46cafa" />
    </linearGradient>
    <filter
       color-interpolation-filters="sRGB"
       height="1.072"
       width="1.072"
       y="-0.035999998"
       x="-0.035999998"
       id="c-6">
      <feGaussianBlur
         id="feGaussianBlur974"
         stdDeviation="0.45" />
    </filter>
    <filter
       color-interpolation-filters="sRGB"
       height="1.0669"
       width="1.0779999"
       y="-0.033427998"
       x="-0.039000001"
       id="b-7">
      <feGaussianBlur
         id="feGaussianBlur977"
         stdDeviation="0.2367975" />
    </filter>
    <linearGradient
       gradientUnits="userSpaceOnUse"
       y2="31"
       y1="1"
       x2="16"
       x1="16"
       id="a-5">
      <stop
         id="stop1009"
         offset="0"
         stop-color="#f4282c" />
      <stop
         id="stop1011"
         offset="1"
         stop-color="#fac136" />
    </linearGradient>
    <filter
       color-interpolation-filters="sRGB"
       height="1.072"
       width="1.072"
       y="-0.035999998"
       x="-0.035999998"
       id="c-3">
      <feGaussianBlur
         id="feGaussianBlur1014"
         stdDeviation="0.45" />
    </filter>
    <filter
       color-interpolation-filters="sRGB"
       height="1.0696"
       width="1.0746"
       y="-0.034798998"
       x="-0.037287001"
       id="b-5">
      <feGaussianBlur
         id="feGaussianBlur1017"
         stdDeviation="0.28136255" />
    </filter>
    <filter
       color-interpolation-filters="sRGB"
       height="1.072"
       width="1.072"
       y="-0.035999998"
       x="-0.035999998"
       id="c-62">
      <feGaussianBlur
         id="feGaussianBlur1049"
         stdDeviation="0.45" />
    </filter>
    <linearGradient
       gradientUnits="userSpaceOnUse"
       y2="1121.5"
       y1="1091.5"
       x2="16"
       x1="16"
       id="a-9">
      <stop
         id="stop1052"
         offset="0"
         stop-color="#9575cd" />
      <stop
         id="stop1054"
         offset="1"
         stop-color="#cd75bc" />
    </linearGradient>
    <filter
       color-interpolation-filters="sRGB"
       height="1.084"
       width="1.063"
       y="-0.041999999"
       x="-0.031500001"
       id="b-1">
      <feGaussianBlur
         id="feGaussianBlur1057"
         stdDeviation="0.21000005" />
    </filter>
    <linearGradient
       gradientUnits="userSpaceOnUse"
       y2="31"
       y1="1"
       x2="16"
       x1="16"
       id="a-2">
      <stop
         id="stop1090"
         offset="0"
         stop-color="#ff791d" />
      <stop
         id="stop1092"
         offset="1"
         stop-color="#f8c430" />
    </linearGradient>
    <filter
       color-interpolation-filters="sRGB"
       height="1.072"
       width="1.072"
       y="-0.035999998"
       x="-0.035999998"
       id="c-7">
      <feGaussianBlur
         id="feGaussianBlur1095"
         stdDeviation="0.45000001" />
    </filter>
    <filter
       color-interpolation-filters="sRGB"
       height="1.0797"
       width="1.0656"
       y="-0.039857"
       x="-0.032823998"
       id="b-0">
      <feGaussianBlur
         id="feGaussianBlur1098"
         stdDeviation="0.2325" />
    </filter>
    <linearGradient
       gradientUnits="userSpaceOnUse"
       y2="31"
       y1="1"
       x2="16"
       x1="16"
       id="a-93">
      <stop
         id="stop1130"
         offset="0"
         stop-color="#72da70" />
      <stop
         id="stop1132"
         offset="1"
         stop-color="#52eea4" />
    </linearGradient>
    <filter
       color-interpolation-filters="sRGB"
       height="1.072"
       width="1.072"
       y="-0.035999998"
       x="-0.035999998"
       id="c-60">
      <feGaussianBlur
         id="feGaussianBlur1135"
         stdDeviation="0.45000001" />
    </filter>
    <filter
       color-interpolation-filters="sRGB"
       height="1.0648"
       width="1.081"
       y="-0.032400001"
       x="-0.0405"
       id="b-6">
      <feGaussianBlur
         id="feGaussianBlur1138"
         stdDeviation="0.2025" />
    </filter>
    <linearGradient
       gradientUnits="userSpaceOnUse"
       y2="-1091.5"
       y1="-1121.5"
       x2="16"
       x1="16"
       id="a-26">
      <stop
         id="stop1173"
         offset="0"
         stop-color="#70d8c3" />
      <stop
         id="stop1175"
         offset="1"
         stop-color="#66e26b" />
    </linearGradient>
    <filter
       color-interpolation-filters="sRGB"
       height="1.072"
       width="1.072"
       y="-0.035999998"
       x="-0.035999998"
       id="c-1">
      <feGaussianBlur
         id="feGaussianBlur1178"
         stdDeviation="0.45" />
    </filter>
    <filter
       color-interpolation-filters="sRGB"
       height="1.0635"
       width="1.0831"
       y="-0.031766001"
       x="-0.041537002"
       id="b-8">
      <feGaussianBlur
         id="feGaussianBlur1181"
         stdDeviation="0.22499171" />
    </filter>
  </defs>
  <g
     transform="translate(180,105)"
     id="22-22-system-save-session">
    <path
       id="path37"
       class="ColorScheme-Text"
       d="m 2.999995,13.003509 v 0 0.9999 15 H 4 19 v -0.9999 -11.0001 -0.69915 h -0.007 l 0.007,-0.015 -3.29297,-3.29295 -0.008,0.015 v -0.015 h -0.69922 -12 z M 4,14.005359 h 3 v 4.00005 1.00005 h 8 v -1.00005 -4.00005 h 0.29298 L 18,16.712409 v 0.29295 11.0001 h -2 v -7.00005 H 15 7 5.999995 v 7.00005 H 4 Z m 4.000005,0 h 3.90039 v 4.00005 H 8.000005 Z M 7,22.005459 h 8 v 6 H 7 Z"
       style="fill:#d6dbf1;fill-opacity:1;stroke:none" />
    <path
       id="path39"
       d="M 0,10 V 32 H 22 V 10 Z"
       style="opacity:1;fill:none" />
  </g>
  <g
     transform="translate(180,105)"
     id="system-save-session">
    <path
       id="path42"
       class="ColorScheme-Text"
       d="m 26,4 v 24 h 5 14 5 V 10 L 49,9 45,5 44,4 H 43 32 Z m 1,1 h 5 v 8 H 43 V 5 h 0.585938 L 49,10.414062 V 27 H 45 V 19 H 31 v 8 h -4 z m 6,0 h 6 v 7 h -6 z m -1,15 h 12 v 7 H 32 Z"
       style="fill:#d6dbf1;fill-opacity:1;stroke:none" />
    <path
       id="path44"
       d="M 22,0 V 32 H 54 V 0 Z"
       style="opacity:1;fill:none" />
  </g>
  <g
     transform="translate(122,105)"
     id="22-22-system-users">
    <path
       id="path87"
       class="ColorScheme-Text"
       d="m 13.999995,12.999864 c -1.661999,0 -3,1.338 -3,3 0,1.662 1.338001,3 3,3 1.661999,0 3,-1.338 3,-3 0,-1.662 -1.338001,-3 -3,-3 z m -6,3 c -1.661999,0 -3,1.338 -3,3 0,1.662 1.338001,3 3,3 1.661999,0 3,-1.338 3,-3 0,-1.662 -1.338001,-3 -3,-3 z m 6,4 c -0.646349,0 -1.255999,0.134093 -1.818359,0.361328 l 0.455078,0.914063 c 0.427816,-0.1605 0.877758,-0.275391 1.363281,-0.275391 2.216023,0 4,1.783975 4,4 h -3.5 l 0.5,1 h 4 v -1 c 0,-2.77002 -2.229982,-5 -5,-5 z m -6,3 c -2.770018,0 -5,2.22998 -5,5 v 1 h 10 v -1 c 0,-2.77002 -2.229982,-5 -5,-5 z m 0,1 c 2.216008,0 4,1.783975 4,4 h -8 c 0,-2.216025 1.783977,-4 4,-4 z"
       style="fill:#d6dbf1;fill-opacity:1;stroke:none" />
    <path
       id="path89"
       d="M 0,10 V 32 H 22 V 10 Z"
       style="opacity:1;fill:none" />
  </g>
  <g
     transform="translate(122,105)"
     id="system-users">
    <path
       id="path92"
       class="ColorScheme-Text"
       d="M 42.5,4 A 4.5,4.5 0 0 0 38,8.5 4.5,4.5 0 0 0 42.5,13 4.5,4.5 0 0 0 47,8.5 4.5,4.5 0 0 0 42.5,4 Z m 0,1 A 3.5,3.5 0 0 1 46,8.5 3.5,3.5 0 0 1 42.5,12 3.5,3.5 0 0 1 39,8.5 3.5,3.5 0 0 1 42.5,5 Z m -9,4 C 31.014719,9 29,11.014719 29,13.5 29,15.985281 31.014719,18 33.5,18 35.985281,18 38,15.985281 38,13.5 38,11.014719 35.985281,9 33.5,9 Z m 0,1 A 3.5,3.5 0 0 1 37,13.5 3.5,3.5 0 0 1 33.5,17 3.5,3.5 0 0 1 30,13.5 3.5,3.5 0 0 1 33.5,10 Z m 9,4 c -0.88285,0.003 -1.758266,0.172285 -2.585938,0.5 -0.06618,0.423679 -0.174132,0.839768 -0.322265,1.242188 C 40.494507,15.254879 41.490227,15.000767 42.5,15 c 3.589851,0 6.5,3.134007 6.5,7 h -8.341797 c 0.170323,0.323289 0.325499,0.657112 0.464844,1 H 50 v -1 c 0,-4.418278 -3.357864,-8 -7.5,-8 z m -9,5 C 29.357864,19 26,22.581722 26,27 v 1 h 15 v -1 c 0,-4.418278 -3.357864,-8 -7.5,-8 z m 0,1 c 3.589851,0 6.5,3.134007 6.5,7 H 27 c 0,-3.865993 2.910149,-7 6.5,-7 z"
       style="fill:#d6dbf1;fill-opacity:1;stroke:none" />
    <path
       id="path94"
       d="M 22,0 V 32 H 54 V 0 Z"
       style="opacity:1;fill:none" />
  </g>
  <g
     transform="translate(68,41)"
     id="22-22-system-search">
    <path
       id="path61"
       class="ColorScheme-Text"
       d="m 9.0000001,13 c -3.3240047,0 -6,2.675995 -6,6 0,3.324005 2.6759953,6 6,6 C 10.481206,25 11.830584,24.465318 12.875,23.582031 L 18.292969,29 19,28.292969 13.582032,22.875 C 14.465318,21.830584 15,20.481205 15,19 15,15.675995 12.324005,13 9.0000001,13 Z m 0,1 C 11.770005,14 14,16.229995 14,19 c 0,2.770005 -2.229995,5 -4.9999999,5 -2.7700048,0 -5,-2.229995 -5,-5 0,-2.770005 2.2299952,-5 5,-5 z"
       style="fill:#d6dbf1;fill-opacity:1;stroke:none" />
    <path
       id="path63"
       d="M 0,10 V 32 H 22 V 10 Z"
       style="opacity:1;fill:none" />
  </g>
  <g
     transform="translate(68,41)"
     id="system-search">
    <path
       id="path66"
       class="ColorScheme-Text"
       d="m 35,4 a 9,9 0 0 0 -9,9 9,9 0 0 0 9,9 9,9 0 0 0 5.994141,-2.298828 L 49.292969,28 50,27.292969 41.699219,18.992187 A 9,9 0 0 0 44,13 9,9 0 0 0 35,4 Z m 0,1 a 8,8 0 0 1 8,8 8,8 0 0 1 -8,8 8,8 0 0 1 -8,-8 8,8 0 0 1 8,-8 z"
       style="fill:#d6dbf1;fill-opacity:1;stroke:none" />
    <path
       id="path68"
       d="M 22,0 V 32 H 54 V 0 Z"
       style="opacity:1;fill:none" />
  </g>
  <g
     transform="translate(176,73)"
     id="system-user-list">
    <path
       id="path110"
       class="ColorScheme-Text"
       d="m 45,9 c -0.58947,0 -1.13295,0.174573 -1.59375,0.46875 0.04318,0.464252 0.0075,0.922667 -0.008,1.335882 C 43.775357,10.29878 44.369053,10.00054 45,10 c 1.104569,0 2,0.895431 2,2 0,1.104569 -0.895431,2 -2,2 -1.040548,-5.56e-4 -1.906833,-0.798896 -1.99219,-1.835938 -0.184344,0.419479 -0.464656,0.770321 -0.6956,1.09959 -10e-4,0.0013 -0.003,0.0026 -0.004,0.0039 C 42.78421,14.287279 43.79697,15 45,15 c 1.66119,0 2.99805,-1.338 2.99805,-3 0,-1.662 -1.33686,-3 -2.99805,-3 z m -6.99999,9 C 42.43204,18 46,21.56798 46,26 H 30 c 0,-4.43202 3.56798,-8 8.00001,-8 z m 10e-6,-1 C 33.01445,17 29,20.716633 29,25.333333 V 27 H 47 V 25.333333 C 47,20.716633 42.98557,17 38.00002,17 Z m 6.97654,-1 c -1.26188,4.88e-4 -2.39619,0.47884 -3.27539,1.240234 0.380034,0.156147 0.766084,0.335754 1.142399,0.50783 0.005,0.0025 0.009,0.0052 0.0137,0.0078 C 43.47258,17.305934 44.19048,17 44.97461,17 c 2.22686,5e-5 4.02344,2.337992 4.02344,4 h -2.72852 c 0.196162,0.339095 0.301576,0.64811 0.449,1 H 50 v -1 c 0,-2.769366 -2.2402,-4.998947 -5.02148,-5 z M 38,5.9999995 c 2.20915,0 4,1.7908576 4,4.0000005 0,2.209141 -1.79085,4 -4,4 -2.20915,0 -4,-1.790859 -4,-4 0,-2.2091429 1.79085,-4.0000005 4,-4.0000005 z m 0,-1 c -2.76144,0 -5,2.2385703 -5,5.0000005 0,2.76143 2.23856,5 5,5 2.350785,0 4.322665,-1.622301 4.857137,-3.808418 C 42.950498,10.809711 43,10.410637 43,10 43,7.2385698 40.76142,4.9999995 38,4.9999995 Z M 31.02344,16 c 1.26188,4.88e-4 2.39619,0.47884 3.27539,1.240234 -0.404465,0.162919 -0.805479,0.355411 -1.156104,0.515606 C 32.52742,17.305934 31.80952,17 31.02539,17 c -2.22686,5e-5 -4.02344,2.337992 -4.02344,4 h 2.72852 c -0.186972,0.33326 -0.318326,0.689701 -0.449,1 H 26 v -1 c 0,-2.769366 2.2402,-4.998947 5.02148,-5 z M 30.99805,9 c 0.58947,0 1.13295,0.174573 1.59375,0.46875 -0.04841,0.460072 -0.0093,0.927542 0.008,1.33588 C 32.222693,10.29878 31.628997,10.00054 30.99805,10 c -1.104569,0 -2,0.895431 -2,2 0,1.104569 0.895431,2 2,2 1.040548,-5.56e-4 1.906833,-0.798896 1.99219,-1.835938 0.188312,0.402683 0.471649,0.770111 0.6956,1.09959 10e-4,0.0013 0.003,0.0026 0.004,0.0039 C 33.21384,14.287279 32.20108,15 30.99805,15 29.33686,15 28,13.662 28,12 28,10.338 29.33686,9.000001 30.99805,9 Z"
       style="fill:#d6dbf1;fill-opacity:1;stroke:none" />
    <path
       id="path84-3"
       d="M 22,0 V 32 H 54 V 0 Z"
       style="opacity:1;fill:none" />
  </g>
  <g
     transform="translate(180,137)"
     id="system-user-prompt">
    <path
       id="path44-5"
       d="M 22,0 V 32 H 54 V 0 Z"
       style="opacity:1;fill:none" />
    <path
       id="path889"
       class="ColorScheme-Text"
       d="m 37,10.75 v 1.5 h 5 v -1.5 z m -4,0 v 1.5 h 3 v -1.5 z m -6,0 v 1.5 h 5 v -1.5 z M 26,9 h 24 v 5 H 26 Z M 25,8 v 7 H 51 V 8 Z m 1,10 h 24 v 5 H 26 Z m -1,-1 v 7 h 26 v -7 z m 3.5,2 C 27.671573,19 27,19.671573 27,20.5 27,21.328427 27.671573,22 28.5,22 29.328427,22 30,21.328427 30,20.5 30,19.671573 29.328427,19 28.5,19 Z m 4,0 C 31.671573,19 31,19.671573 31,20.5 31,21.328427 31.671573,22 32.5,22 33.328427,22 34,21.328427 34,20.5 34,19.671573 33.328427,19 32.5,19 Z m 4,0 C 35.671573,19 35,19.671573 35,20.5 35,21.328427 35.671573,22 36.5,22 37.328427,22 38,21.328427 38,20.5 38,19.671573 37.328427,19 36.5,19 Z m 4,0 C 39.671573,19 39,19.671573 39,20.5 39,21.328427 39.671573,22 40.5,22 41.328427,22 42,21.328427 42,20.5 42,19.671573 41.328427,19 40.5,19 Z"
       style="fill:#d6dbf1;fill-opacity:1;stroke:none" />
  </g>
  <g
     transform="matrix(0.6875,0,0,0.6875,164.875,147)"
     id="22-22-system-user-prompt"
     style="stroke-width:1.45455">
    <path
       id="path909-5"
       class="ColorScheme-Text"
       d="m 35.818183,21.09091 a 0.72727275,0.72727275 0 0 1 -0.727272,0.727273 0.72727275,0.72727275 0 0 1 -0.727273,-0.727273 0.72727275,0.72727275 0 0 1 0.727273,-0.727273 0.72727275,0.72727275 0 0 1 0.727272,0.727273 z m -2.181818,0 a 0.72727275,0.72727275 0 0 1 -0.727273,0.727273 0.72727275,0.72727275 0 0 1 -0.727272,-0.727273 0.72727275,0.72727275 0 0 1 0.727272,-0.727273 0.72727275,0.72727275 0 0 1 0.727273,0.727273 z m -2.181818,0 a 0.72727275,0.72727275 0 0 1 -0.727273,0.727273 0.72727275,0.72727275 0 0 1 -0.727273,-0.727273 0.72727275,0.72727275 0 0 1 0.727273,-0.727273 0.72727275,0.72727275 0 0 1 0.727273,0.727273 z m -2.181818,0 a 0.72727275,0.72727275 0 0 1 -0.727273,0.727273 0.72727275,0.72727275 0 0 1 -0.727273,-0.727273 0.72727275,0.72727275 0 0 1 0.727273,-0.727273 0.72727275,0.72727275 0 0 1 0.727273,0.727273 z m 5.81818,-10.909091 H 38 v 1.454545 h -2.909091 z m -2.909091,0 h 1.454545 v 1.454545 h -1.454545 z m -4.363635,0 h 2.909091 v 1.454545 h -2.909091 z m -2.909091,7.272727 v 7.272728 h 26.181819 v -7.272728 z m 1.454546,1.454546 h 23.272728 v 4.363636 H 26.363638 Z M 24.909097,7.2727345 V 14.545462 H 51.090916 V 7.2727345 Z M 26.363643,8.72728 h 23.272728 v 4.363637 H 26.363643 Z"
       style="fill:#d6dbf1;fill-opacity:1;stroke:none" />
    <path
       id="path44-5-7"
       d="M 22,0 V 32 H 54 V 0 Z"
       style="opacity:1;fill:none" />
  </g>
  <g
     transform="matrix(0.6875,0,0,0.6875,160.875,83)"
     id="22-22-system-user-list"
     style="stroke-width:1.45455">
    <path
       id="path340-1-2"
       class="ColorScheme-Text"
       d="m 44.552119,10.181819 c -0.374531,0 -0.720437,0.103636 -1.028408,0.269887 1.89e-4,0.0019 -0.09527,0.05843 -0.09498,0.06047 0.114764,1.452661 -0.249454,2.376872 -0.665091,3.098603 0.396059,0.563505 1.048422,0.934682 1.788481,0.934682 1.025803,0 1.886094,-0.707989 2.119316,-1.661932 0.04073,-0.166636 0.06255,-0.340697 0.06255,-0.519887 -1.4e-5,-1.204987 -0.976843,-2.181818 -2.181818,-2.181818 z m -13.097528,0 c 0.374531,0 0.720436,0.103636 1.028407,0.269887 -1.89e-4,0.0019 0.09527,0.05843 0.09498,0.06047 -0.114764,1.452661 0.249455,2.376872 0.665091,3.098603 -0.396058,0.563505 -1.048422,0.934682 -1.78848,0.934682 -1.025804,0 -1.886095,-0.707989 -2.119317,-1.661932 -0.04073,-0.166636 -0.06254,-0.340697 -0.06254,-0.519887 1.4e-5,-1.204987 0.976844,-2.181818 2.181818,-2.181818 z m -4.4e-5,5.818168 c 1.226473,0 2.302211,0.565518 2.960233,1.477273 -0.369265,0.195739 -0.745004,0.436224 -1.070982,0.630662 -0.358356,-0.422659 -1.025004,-0.65339 -1.889251,-0.65339 -1.309454,0 -2.18182,0.960799 -2.18182,2.909104 h 1.818182 l -0.727273,1.454546 h -2.545454 l 1e-6,-2.21024 c 10e-7,-2.093049 1.622008,-3.607955 3.636364,-3.607955 z m 13.09091,1.4e-5 c -1.226473,0 -2.302211,0.565519 -2.960233,1.477273 0.369265,0.19574 0.745004,0.436224 1.070982,0.630662 0.358356,-0.422659 1.025003,-0.653389 1.889251,-0.653389 1.309454,0 2.181816,0.993887 2.181816,2.909089 h -1.818182 l 0.727273,1.454546 h 2.545454 l 2e-6,-2.210225 c 2e-6,-2.093049 -1.622007,-3.607956 -3.636363,-3.607956 z M 38,18.909091 c 2.909091,0 5.818182,1.454545 5.818182,5.818182 H 32.181818 c 0,-4.363637 2.909091,-5.818182 5.818182,-5.818182 z m 0,-1.454546 c -4.230226,0 -7.261221,2.974329 -7.269818,7.272728 l -0.0029,1.454545 h 14.545454 l -0.0029,-1.454545 C 45.261176,20.405961 42.230211,17.454545 38,17.454545 Z m 7.5e-5,-11.6363628 c -2.81168,0 -5.090953,2.2792686 -5.090953,5.0909048 0,2.811643 2.279273,5.090914 5.090953,5.090914 2.393556,0 4.401294,-1.651796 4.945498,-3.877663 0.09498,-0.388814 0.145469,-0.795143 0.145469,-1.213251 0,-2.8116362 -2.279316,-5.0909048 -5.090967,-5.0909048 z"
       style="fill:#d6dbf1;fill-opacity:1;stroke:none" />
    <path
       id="path84-3-7"
       d="M 22,0 V 32 H 54 V 0 Z"
       style="opacity:1;fill:none" />
  </g>
  <g
     id="system-lock-screen"
     transform="translate(236)">
    <path
       inkscape:connector-curvature="0"
       d="M 16,0 C 7.1723733,0 0,7.1723733 0,16 0,24.827627 7.1723733,32 16,32 24.827627,32 32,24.827627 32,16 32,7.1723733 24.827627,0 16,0 Z"
       overflow="visible"
       id="path953"
       style="color:#000000;overflow:visible;opacity:0;fill:none;fill-opacity:1;stroke-width:1.06667" />
    <path
       style="color:#000000;overflow:visible;opacity:0.3;fill:#ffffff;fill-opacity:0.2"
       id="path1145"
       overflow="visible"
       d="M 16,1 C 7.7241,1 1,7.7241 1,16 1,24.2759 7.7241,31 16,31 24.2759,31 31,24.2759 31,16 31,7.7241 24.2759,1 16,1 Z"
       inkscape:connector-curvature="0" />
    <g
       id="g1147"
       style="isolation:auto;mix-blend-mode:normal;fill:#ffffff" />
    <path
       id="path1151"
       style="fill:#d6dbf1;fill-opacity:1;fill-rule:evenodd;paint-order:fill markers stroke"
       d="m 16,8 c -2.216,0 -4,1.784 -4,4 v 3 c -1.108,0 -2,0.892 -2,2 v 4 c 0,1.108 0.892,2 2,2 h 4 4 c 1.108,0 2,-0.892 2,-2 v -4 c 0,-1.108 -0.892,-2 -2,-2 V 12 C 20,9.784 18.216,8 16,8 Z m 0,1 c 1.662,0 3,1.338 3,3 v 3 h -6 v -3 c 0,-1.662 1.338,-3 3,-3 z"
       inkscape:connector-curvature="0" />
  </g>
  <g
     id="system-switch-user"
     transform="translate(283,-1090.5)">
    <circle
       transform="scale(1,-1)"
       cx="16"
       cy="-1106.5"
       r="16"
       id="circle955"
       style="opacity:0;fill:none;fill-opacity:1;stroke-width:1.06667" />
    <circle
       style="opacity:0.3;fill:#ffffff;fill-opacity:0.2"
       id="circle1188"
       r="15"
       cy="-1106.5"
       cx="16"
       transform="scale(1,-1)" />
    <g
       id="g1194"
       style="fill:#ffffff;stroke-width:2;stroke-linecap:round;stroke-linejoin:round">
      <path
         id="path1192"
         d="m 14.292303,1107.0004 a 0.57692303,0.50000309 0 0 1 0.553854,0.5 v 2 h 8.076923 c 0.319617,0 0.57692,0.223 0.57692,0.5 v 2 c 0,0.276 -0.257303,0.5 -0.57692,0.5 h -8.076923 v 2 a 0.57692303,0.50000309 0 0 1 -0.93,0.394 l -5.192311,-3.5 a 0.57692303,0.50000309 0 0 1 0,-0.79 l 5.192311,-3.499 a 0.5803846,0.50300311 0 0 1 0.376146,-0.105 z m 3.415394,-9.0001 a 0.57692303,0.50000309 0 0 0 -0.553854,0.5 v 2 H 9.07692 c -0.319612,0 -0.57692,0.223 -0.57692,0.5 v 2 c 0,0.277 0.257308,0.5 0.57692,0.5 h 8.076923 v 2 a 0.57692303,0.50000309 0 0 0 0.93,0.394 l 5.192314,-3.5 a 0.57692303,0.50000309 0 0 0 0,-0.789 l -5.192314,-3.5 a 0.5803846,0.50300311 0 0 0 -0.376146,-0.105 z"
         inkscape:connector-curvature="0"
         style="fill:#d6dbf1;fill-opacity:1;stroke-width:2.14835" />
    </g>
  </g>
  <g
     id="g2297"
     transform="translate(68,83)" />
  <g
     id="22-22-system-lock-screen"
     transform="translate(68,83)">
    <path
       id="path19"
       d="m 54,96 v 22 H 76 V 96 Z"
       style="fill:none" />
    <path
       style="color:#000000;overflow:visible;opacity:0.3;fill:#ffffff;fill-opacity:0.2;stroke-width:0.733334"
       id="path1145-8"
       overflow="visible"
       d="m 65,96 c -6.068997,0 -11,4.931 -11,11 0,6.069 4.931003,11 11,11 6.068997,0 11,-4.931 11,-11 0,-6.069 -4.931003,-11 -11,-11 z"
       inkscape:connector-curvature="0" />
    <path
       id="path1151-4"
       style="fill:#d6dbf1;fill-opacity:1;fill-rule:evenodd;stroke-width:0.733334;paint-order:fill markers stroke"
       d="m 65,101.13334 c -1.625063,0 -2.933337,1.30826 -2.933337,2.93332 v 2.2 c -0.812526,0 -1.466663,0.65414 -1.466663,1.46668 v 2.93332 c 0,0.81254 0.654137,1.46668 1.466663,1.46668 H 65 67.933337 c 0.812526,0 1.466663,-0.65414 1.466663,-1.46668 v -2.93332 c 0,-0.81254 -0.654137,-1.46668 -1.466663,-1.46668 v -2.2 c 0,-1.62506 -1.308274,-2.93332 -2.933337,-2.93332 z m 0,0.73332 c 1.2188,0 2.2,0.9812 2.2,2.2 v 2.2 h -4.4 v -2.2 c 0,-1.2188 0.9812,-2.2 2.2,-2.2 z"
       inkscape:connector-curvature="0" />
  </g>
  <g
     id="system-log-out"
     transform="translate(189)">
    <path
       inkscape:connector-curvature="0"
       d="M 16,0 C 7.1723733,0 0,7.1723733 0,16 0,24.827627 7.1723733,32 16,32 24.827627,32 32,24.827627 32,16 32,7.1723733 24.827627,0 16,0 Z"
       overflow="visible"
       id="path951"
       style="color:#000000;overflow:visible;opacity:0;fill:none;fill-opacity:1;stroke-width:1.06667" />
    <path
       style="color:#000000;overflow:visible;opacity:0.3;fill:#ffffff;fill-opacity:0.2"
       id="path1105"
       overflow="visible"
       d="M 16,1 C 7.7241,1 1,7.7241 1,16 1,24.2759 7.7241,31 16,31 24.2759,31 31,24.2759 31,16 31,7.7241 24.2759,1 16,1 Z"
       inkscape:connector-curvature="0" />
    <path
       style="fill:#dfdfdf;stroke-width:1.09217"
       d="m 15.323067,8.6210187 c -0.228301,0.00631 -0.455943,0.022602 -0.682605,0.049066 -1.813299,0.2117235 -3.550792,1.0647875 -4.8401019,2.5171623 -2.5786187,2.90475 -2.5636538,7.303546 0.035201,10.19024 2.5988569,2.886696 6.9758819,3.368046 10.1398929,1.113525 1.190309,-0.845588 -0.0819,-2.62843 -1.270285,-1.780145 -2.27255,1.619306 -5.37646,1.279819 -7.243086,-0.793546 -1.8666265,-2.073368 -1.8776891,-5.193171 -0.02559,-7.279506 1.852089,-2.086332 4.953943,-2.449227 7.237753,-0.84581 1.199224,0.874938 2.488291,-0.956014 1.258553,-1.787612 C 18.541684,9.0277165 16.921182,8.5768543 15.323078,8.6210187 Z m 4.567058,3.8194743 v 2.730481 h -3.276507 c -0.603189,0 -1.092169,0.488992 -1.092169,1.092192 0,0.603201 0.48898,1.092193 1.092169,1.092193 h 3.276507 v 2.730481 l 4.914761,-3.822674 z"
       id="path59" />
  </g>
  <g
     id="system-reboot"
     transform="translate(47)">
    <path
       inkscape:connector-curvature="0"
       d="M 16,0 C 7.1714133,0 0,7.1714133 0,16 0,24.828587 7.1714133,32 16,32 24.82752,32 32,24.828587 32,16 32,7.17248 24.828587,0 16,0 Z"
       overflow="visible"
       id="path940"
       style="color:#000000;overflow:visible;opacity:0;fill:none;fill-opacity:1;stroke-width:1.06667" />
    <path
       style="color:#000000;overflow:visible;opacity:0.3;fill:#ffffff;fill-opacity:0.2"
       id="path984"
       overflow="visible"
       d="M 16,1 C 7.7232,1 1,7.7232 1,16 1,24.2768 7.7232,31 16,31 24.2758,31 31,24.2768 31,16 31,7.7242 24.2768,1 16,1 Z"
       inkscape:connector-curvature="0" />
    <path
       d="m 22.847199,12.820334 c -0.28395,-0.45444 -0.871029,-0.60594 -1.344369,-0.34074 -0.47335,0.28396 -0.605949,0.88989 -0.32186,1.36324 0.66275,1.0793 0.98459,2.36674 0.85199,3.7489 -0.28395,2.91576 -2.688609,5.22575 -5.604418,5.43402 -3.540639,0.24618 -6.494318,-2.5939 -6.456448,-6.07776 0.0379,-3.23776 2.68861,-5.92631 5.926298,-5.9831 h 0.0379 v 1.43894 c 0,0.41654 0.45445,0.68161 0.814089,0.45444 l 3.881439,-2.42354 c 0.34074,-0.20827 0.34074,-0.7005098 0,-0.9087798 l -3.862509,-2.44254 c -0.359769,-0.22716 -0.814079,0.0379 -0.814079,0.45445 v 1.45794 c -4.600929,0.0379 -8.2740973,3.9382398 -7.9332873,8.6148998 0.28395,3.91931 3.4459593,7.08127 7.3652673,7.36528 4.695598,0.35977 8.614907,-3.37023 8.614907,-7.99009 0.0189,-1.51474 -0.41655,-2.95365 -1.154969,-4.16545 z"
       id="path76"
       style="fill:#d6dbf1;fill-opacity:1;stroke-width:0.0338105" />
  </g>
  <g
     id="22-22-system-reboot"
     transform="translate(68,83)">
    <path
       id="path9"
       d="M 0,0 V 22 H 22 V 0 Z"
       style="fill:none" />
    <path
       style="color:#000000;overflow:visible;opacity:0.3;fill:#ffffff;fill-opacity:0.2;stroke-width:0.733333"
       id="path984-7"
       overflow="visible"
       d="M 11,0 C 4.930347,0 0,4.930347 0,11 0,17.069653 4.930347,22 11,22 17.06892,22 22,17.069653 22,11 22,4.93108 17.069653,0 11,0 Z"
       inkscape:connector-curvature="0" />
    <path
       d="m 16.021279,8.668245 c -0.20823,-0.333256 -0.638754,-0.444356 -0.98587,-0.249876 -0.347124,0.208237 -0.444363,0.652586 -0.236031,0.999709 0.486017,0.791487 0.722033,1.73561 0.624793,2.749194 -0.20823,2.138224 -1.971647,3.832216 -4.109907,3.984948 -2.596468,0.180532 -4.7625,-1.902194 -4.734728,-4.457024 0.02779,-2.374358 1.971647,-4.345961 4.345952,-4.387607 h 0.02779 v 1.055223 c 0,0.305462 0.333264,0.499847 0.596999,0.333256 l 2.846389,-1.777263 c 0.249876,-0.152731 0.249876,-0.513707 0,-0.666439 L 11.564159,4.46117 C 11.300329,4.294586 10.967168,4.48896 10.967168,4.794434 V 5.86359 c -3.374014,0.02779 -6.067671,2.888042 -5.817744,6.317593 0.20823,2.874161 2.527037,5.192928 5.401196,5.401202 3.443439,0.263832 6.317599,-2.471499 6.317599,-5.859396 0.01386,-1.110809 -0.30547,-2.16601 -0.846978,-3.054663 z"
       id="path76-5"
       style="fill:#d6dbf1;fill-opacity:1;stroke-width:0.0247944" />
  </g>
  <g
     id="22-22-system-switch-user"
     transform="translate(122,83)">
    <path
       id="path79"
       d="M 0,0 V 22 H 22 V 0 Z"
       style="fill:none" />
    <circle
       style="opacity:0.3;fill:#ffffff;fill-opacity:0.2;stroke-width:0.733333"
       id="circle1188-3"
       r="11"
       cy="-11"
       cx="11"
       transform="scale(1,-1)" />
    <path
       id="path1192-6"
       d="m 9.7476918,11.36696 a 0.42307689,0.36666893 0 0 1 0.4061592,0.366666 v 1.466667 h 5.923077 c 0.234386,0 0.423075,0.163533 0.423075,0.366667 v 1.466666 c 0,0.2024 -0.188689,0.366667 -0.423075,0.366667 H 10.153851 V 16.86696 A 0.42307689,0.36666893 0 0 1 9.4718514,17.155893 L 5.6641566,14.589226 a 0.42307689,0.36666893 0 0 1 0,-0.579333 L 9.4718514,11.44396 a 0.42561537,0.36886895 0 0 1 0.2758404,-0.077 z M 12.252314,4.7668863 A 0.42307689,0.36666893 0 0 0 11.846154,5.133553 V 6.6002197 H 5.9230776 c -0.2343822,0 -0.4230747,0.1635333 -0.4230747,0.3666666 V 8.433553 c 0,0.2031333 0.1886925,0.3666667 0.4230747,0.3666667 h 5.9230764 v 1.4666663 a 0.42307689,0.36666893 0 0 0 0.682,0.288934 l 3.807697,-2.566667 a 0.42307689,0.36666893 0 0 0 0,-0.5786 L 12.528154,4.8438863 a 0.42561537,0.36886895 0 0 0 -0.27584,-0.077 z"
       inkscape:connector-curvature="0"
       style="fill:#d6dbf1;fill-opacity:1;stroke-width:1.57546;stroke-linecap:round;stroke-linejoin:round" />
  </g>
  <g
     id="system-shutdown"
     transform="translate(94)">
    <path
       inkscape:connector-curvature="0"
       d="M 16,0 C 7.171413,0 0,7.171413 0,16 0,24.828587 7.171413,32 16,32 24.828587,32 32,24.828587 32,16 32,7.171413 24.828587,0 16,0 Z"
       overflow="visible"
       id="path945"
       style="color:#000000;overflow:visible;opacity:0;fill:none;fill-opacity:1;stroke-width:1.06667" />
    <path
       style="color:#000000;overflow:visible;opacity:0.3;fill:#ffffff;fill-opacity:0.2"
       id="path1024"
       overflow="visible"
       d="M 16,1 C 7.7232,1 1,7.7232 1,16 1,24.2768 7.7232,31 16,31 24.2768,31 31,24.2768 31,16 31,7.7232 24.2768,1 16,1 Z"
       inkscape:connector-curvature="0" />
    <path
       d="m 16.024773,14.919819 c 0.603888,0 1.093614,-0.4839 1.093614,-1.080258 V 8.079656 C 17.118387,7.4836502 16.628661,7 16.024773,7 15.420874,7 14.931149,7.4836502 14.931149,8.079656 v 5.760225 c 0,0.596138 0.489725,1.079908 1.093624,1.079908 z m 4.178623,-4.884333 c -0.433384,-0.2512367 -0.989864,-0.1082335 -1.243628,0.319788 -0.254652,0.428009 -0.109338,0.978088 0.323555,1.228703 1.870768,1.092198 3.09685,3.026029 3.09929,5.332721 -0.0068,3.470722 -2.847056,6.280276 -6.357929,6.286064 -3.510767,-0.006 -6.35207,-2.815342 -6.3582579,-6.286064 0.00192,-2.306593 1.2283709,-4.240523 3.0995219,-5.332721 0.432634,-0.251485 0.577053,-0.801304 0.323308,-1.228703 -0.253764,-0.4280026 -0.810472,-0.5709107 -1.242889,-0.319285 v -5.03e-4 c -2.3928006,1.383624 -3.9992922,3.923612 -3.996363,6.88133 0,4.464885 3.497101,8.082819 8.174985,8.082819 4.632646,0 8.174347,-3.617934 8.175007,-8.082819 0.0029,-2.957718 -1.604709,-5.497605 -3.996373,-6.88133 z"
       id="path49-3"
       style="fill:#d6dbf1;fill-opacity:1;stroke-width:0.0323436" />
  </g>
  <g
     id="22-22-system-shutdown"
     transform="translate(68,115)">
    <path
       id="path49"
       d="M 0,0 V 22 H 22 V 0 Z"
       style="fill:none" />
    <path
       style="color:#000000;overflow:visible;opacity:0.3;fill:#ffffff;fill-opacity:0.2;stroke-width:0.733333"
       id="path1024-6"
       overflow="visible"
       d="M 11,0 C 4.930347,0 0,4.93035 0,11 0,17.06965 4.930347,22 11,22 17.069653,22 22,17.06965 22,11 22,4.93035 17.069653,0 11,0 Z"
       inkscape:connector-curvature="0" />
    <path
       d="m 10.999834,10.20787 c 0.443219,0 0.802653,-0.35486 0.802653,-0.79219 V 5.19175 C 11.802487,4.75468 11.443053,4.4 10.999834,4.4 c -0.443229,0 -0.80266,0.35468 -0.80266,0.79175 v 4.22416 c 0,0.43717 0.359431,0.79194 0.80266,0.79194 z m 3.066878,-3.58184 c -0.318079,-0.18425 -0.726505,-0.0794 -0.912753,0.2345 -0.186902,0.31388 -0.08025,0.71727 0.23747,0.90106 1.373042,0.80094 2.272919,2.21908 2.274711,3.91066 -0.005,2.54519 -2.089584,4.60553 -4.666372,4.60977 C 8.4230595,16.27802 6.3376985,14.21744 6.3331575,11.67225 6.3345744,9.98075 7.2347132,8.56253 8.6080353,7.76159 8.9255651,7.57716 9.0315614,7.17396 8.8453269,6.86053 8.6590771,6.54666 8.2504847,6.44186 7.9331132,6.62639 v -3.6e-4 c -1.7561831,1.01465 -2.9352598,2.87731 -2.9331103,5.0463 0,3.27425 2.5666801,5.9274 5.9999891,5.9274 3.400107,0 5.999521,-2.65315 6.000005,-5.9274 0.0021,-2.16899 -1.177768,-4.03158 -2.933118,-5.0463 z"
       id="path49-3-7"
       style="fill:#d6dbf1;fill-opacity:1;stroke-width:0.0237285" />
  </g>
  <g
     id="system-suspend-hibernate">
    <path
       style="color:#000000;overflow:visible;opacity:0;fill:none;fill-opacity:1;stroke-width:1.06667"
       inkscape:connector-curvature="0"
       d="M 16,0 C 7.1723733,0 0,7.1723733 0,16 0,24.827627 7.1723733,32 16,32 24.827627,32 32,24.827627 32,16 32,7.1723733 24.827627,0 16,0 Z"
       overflow="visible"
       id="path938" />
    <path
       id="path944"
       overflow="visible"
       d="M 16,1 C 7.7241,1 1,7.7241 1,16 1,24.2759 7.7241,31 16,31 24.2759,31 31,24.2759 31,16 31,7.7241 24.2759,1 16,1 Z"
       inkscape:connector-curvature="0"
       style="color:#000000;overflow:visible;opacity:0.3;fill:#ffffff;fill-opacity:0.2" />
    <g
       id="g6"
       transform="matrix(0.01836735,0,0,0.01836735,6.8163265,6.8163265)">
      <path
         d="M 500,10 C 229.4,10 10,229.4 10,500 10,770.6 229.4,990 500,990 770.6,990 990,770.6 990,500 990,229.4 770.6,10 500,10 Z m 0,898.3 C 274.8,908.3 91.7,725.2 91.7,500 91.7,274.8 274.8,91.7 500,91.7 725.2,91.7 908.3,274.9 908.3,500 908.3,725.1 725.2,908.3 500,908.3 Z"
         id="path4"
         style="fill:#d6dbf1;fill-opacity:1" />
    </g>
    <rect
       x="20.116268"
       y="14.568273"
       width="1.4938635"
       height="0.41772178"
       id="rect12"
       style="fill:#d6dbf1;fill-opacity:1;stroke-width:0.703837" />
    <rect
       x="20.116268"
       y="15.681996"
       width="1.4938635"
       height="0.41772178"
       id="rect14"
       style="fill:#d6dbf1;fill-opacity:1;stroke-width:0.703837" />
    <polygon
       points="-778.9,581 -778.9,577.4 -780.1,577.4 -780.1,581 -782.7,578.4 -783.6,579.3 -781,581.9 -784.6,581.9 -784.6,583.1 -781,583.1 -783.6,585.7 -782.7,586.5 -780.1,584 -780.1,587.6 -778.9,587.6 -778.9,584 -776.9,586 -776.9,584.3 -778,583.1 -776.9,583.1 -776.9,581.9 -778,581.9 -776.9,580.7 -776.9,579 "
       id="polygon16"
       transform="matrix(0.711362,0,0,0.69620324,568.43464,-391.24865)"
       style="fill:#d6dbf1;fill-opacity:1" />
    <path
       d="m 19.334129,17.631636 v -5.70882 c 0,-0.69619 -0.640348,-1.32282 -1.351695,-1.32282 -0.711339,0 -1.351535,0.55698 -1.351535,1.32282 v 5.70882 c -0.569181,0.41778 -0.924762,1.04436 -0.924762,1.74056 0,1.18354 0.995896,2.2278 2.276297,2.2278 1.209338,0 2.276433,-0.97468 2.276433,-2.2278 0,-0.6962 -0.355716,-1.32278 -0.924738,-1.74056 z m -1.361545,0.264843 0.0137,0.03001 -0.01633,-0.01707 10e-4,7.73e-4 -0.01149,-6.668148 0.02293,-0.01541 0.0079,-0.02002 0.0036,6.70358 -0.01421,0.0088 z"
       id="path6-6"
       style="fill:#d6dbf1;fill-opacity:1;stroke-width:0.703837"
       sodipodi:nodetypes="cssscsssccccccccccc" />
    <rect
       x="20.116268"
       y="13.524175"
       width="1.4938635"
       height="0.41772178"
       id="rect10"
       style="fill:#d6dbf1;fill-opacity:1;stroke-width:0.703837" />
  </g>
  <g
     id="22-22-system-suspend-hibernate"
     transform="translate(68,147)">
    <path
       id="path49-1"
       d="M 0,0 V 22 H 22 V 0 Z"
       style="fill:none" />
    <path
       id="path944-3"
       overflow="visible"
       d="M 11,0 C 4.931007,0 0,4.931007 0,11 0,17.068993 4.931007,22 11,22 17.068993,22 22,17.068993 22,11 22,4.931007 17.068993,0 11,0 Z"
       inkscape:connector-curvature="0"
       style="color:#000000;overflow:visible;opacity:0.3;fill:#ffffff;fill-opacity:0.2;stroke-width:0.733333" />
    <path
       d="m 11.000001,4.4000029 c -3.6448169,0 -6.6000011,2.9551842 -6.6000011,6.6000011 0,3.644817 2.9551842,6.600001 6.6000011,6.600001 3.644817,0 6.600001,-2.955184 6.600001,-6.600001 0,-3.6448169 -2.955184,-6.6000011 -6.600001,-6.6000011 z m 0,12.0995531 c -3.0333066,0 -5.4995519,-2.466245 -5.4995519,-5.499552 0,-3.0333066 2.4662453,-5.4995519 5.4995519,-5.4995519 3.033307,0 5.499552,2.4675922 5.499552,5.4995519 0,3.03196 -2.466245,5.499552 -5.499552,5.499552 z"
       id="path4-75"
       style="fill:#d6dbf1;fill-opacity:1;stroke-width:0.0134694" />
    <rect
       x="14.018597"
       y="9.9500628"
       width="1.0954999"
       height="0.30632931"
       id="rect12-35"
       style="fill:#c0c5d9;fill-opacity:1;stroke-width:0.516147" />
    <rect
       x="14.018597"
       y="10.766793"
       width="1.0954999"
       height="0.30632931"
       id="rect14-6"
       style="fill:#c0c5d9;fill-opacity:1;stroke-width:0.516147" />
    <polygon
       points="-782.7,586.5 -780.1,584 -780.1,587.6 -778.9,587.6 -778.9,584 -776.9,586 -776.9,584.3 -778,583.1 -776.9,583.1 -776.9,581.9 -778,581.9 -776.9,580.7 -776.9,579 -778.9,581 -778.9,577.4 -780.1,577.4 -780.1,581 -782.7,578.4 -783.6,579.3 -781,581.9 -784.6,581.9 -784.6,583.1 -781,583.1 -783.6,585.7 "
       id="polygon16-2"
       transform="matrix(0.52166547,0,0,0.51054904,416.11874,-287.64901)"
       style="fill:#d6dbf1;fill-opacity:1" />
    <path
       d="M 13.445028,12.196536 V 8.010068 C 13.445028,7.499529 12.975439,7.04 12.453785,7.04 c -0.521649,0 -0.991126,0.408452 -0.991126,0.970068 v 4.186468 C 11.04526,12.502908 10.7845,12.9624 10.7845,13.472947 c 0,0.867929 0.730324,1.63372 1.669285,1.63372 0.886848,0 1.669384,-0.714766 1.669384,-1.63372 0,-0.510547 -0.260858,-0.970039 -0.678141,-1.276411 z m -0.998466,0.194216 0.01005,0.022 -0.01197,-0.01254 7.33e-4,5.65e-4 -0.0084,-4.889977 0.01682,-0.01129 0.0058,-0.01467 0.0026,4.915959 -0.01042,0.0066 z"
       id="path6-6-91"
       style="fill:#d6dbf1;fill-opacity:1;stroke-width:0.516147"
       sodipodi:nodetypes="cssscsssccccccccccc" />
    <rect
       x="14.018597"
       y="9.1843901"
       width="1.0954999"
       height="0.30632931"
       id="rect10-27"
       style="fill:#c0c5d9;fill-opacity:1;stroke-width:0.516147" />
  </g>
  <g
     id="22-22-system-log-out"
     transform="translate(122,147)">
    <path
       id="path29"
       d="M 0,0 V 22 H 22 V 0 Z"
       style="fill:none" />
    <path
       style="color:#000000;overflow:visible;opacity:0.3;fill:#ffffff;fill-opacity:0.2;stroke-width:0.733333"
       id="path1105-5"
       overflow="visible"
       d="M 11,0 C 4.931007,0 0,4.93101 0,11 0,17.06899 4.931007,22 11,22 17.06899,22 22,17.06899 22,11 22,4.93101 17.06899,0 11,0 Z"
       inkscape:connector-curvature="0" />
    <path
       style="fill:#dfdfdf;stroke-width:0.912904"
       d="M 10.270927,4.5631401 C 10.080099,4.5684061 9.8898211,4.5820306 9.7003629,4.6041559 8.1846939,4.7811273 6.7323884,5.4941716 5.6547023,6.7081576 3.499331,9.1361301 3.5118397,12.812919 5.6841247,15.2258 c 2.1722875,2.41288 5.8308803,2.815224 8.4755583,0.930753 0.994935,-0.706795 -0.06846,-2.197007 -1.06178,-1.487957 -1.89954,1.353517 -4.4939863,1.069753 -6.0542293,-0.663295 C 5.4834298,12.27225 5.4741836,9.664523 7.022284,7.9206333 8.570376,6.1767463 11.163098,5.8734158 13.07205,7.2136523 14.074441,7.9449802 15.151919,6.4145559 14.124033,5.7194541 12.961248,4.9030864 11.606732,4.5262275 10.270935,4.5631435 Z m 3.817432,3.1925558 v 2.2823071 h -2.738705 c -0.504184,0 -0.912904,0.40873 -0.912904,0.912923 0,0.504193 0.40872,0.912923 0.912904,0.912923 h 2.738705 v 2.282307 l 4.108064,-3.19523 z"
       id="path59-6" />
  </g>
  <g
     id="system-suspend"
     transform="translate(122,147)">
    <circle
       cx="35"
       cy="-131"
       r="16"
       id="circle949"
       style="opacity:0;fill:#000000;fill-opacity:1;stroke-width:1.06667" />
    <circle
       style="opacity:0.3;fill:#ffffff;fill-opacity:0.2"
       id="circle1064"
       r="15"
       cy="-131"
       cx="35" />
    <path
       d="m 35.232663,-134.74288 h 3.71008 l -4.708763,4.71414 c -0.428198,0.42875 -0.570925,1.00008 -0.28547,1.57158 0.142735,0.42876 0.71347,0.85716 1.284169,0.85716 h 7.134652 c 0.856214,0 1.426933,-0.5713 1.426933,-1.42866 0,-0.71422 -0.570719,-1.42846 -1.426933,-1.42846 h -3.71006 l 4.70875,-4.71414 c 0.428199,-0.42875 0.570926,-1.00008 0.285463,-1.57158 C 43.508757,-137.1716 42.938041,-137.6 42.367315,-137.6 h -7.134652 c -0.713463,0 -1.426934,0.5713 -1.426934,1.42866 0,0.85715 0.713471,1.42846 1.426934,1.42846 z"
       id="path4-3"
       style="fill:#d6dbf1;fill-opacity:1;stroke-width:0.0509909" />
    <path
       d="m 26.459598,-128.7877 h 2.226048 l -2.825258,2.82524 c -0.256919,0.25695 -0.342555,0.59935 -0.171282,0.94185 0.08564,0.25697 0.428082,0.51371 0.770502,0.51371 h 4.280791 c 0.513728,0 0.856159,-0.34238 0.856159,-0.85621 0,-0.42804 -0.342431,-0.85609 -0.856159,-0.85609 h -2.226037 l 2.82525,-2.82524 c 0.256919,-0.25695 0.342557,-0.59935 0.171278,-0.94185 -0.08563,-0.25697 -0.428065,-0.51371 -0.770501,-0.51371 h -4.280791 c -0.428078,0 -0.85616,0.34239 -0.85616,0.85621 0,0.5137 0.428082,0.85609 0.85616,0.85609 z"
       id="path4-3-6"
       style="fill:#d6dbf1;fill-opacity:1;stroke-width:0.030577" />
  </g>
  <g
     id="22-22-system-suspend"
     transform="translate(68,178)">
    <path
       id="path69"
       d="M 0,0 V 22 H 21.999999 V 0 Z"
       style="fill:none;stroke-width:1.02353" />
    <circle
       style="opacity:0.3;fill:#ffffff;fill-opacity:0.2;stroke-width:0.733333"
       id="circle1064-7"
       r="11"
       cy="11"
       cx="11" />
    <path
       d="m 11.17062,8.25522 h 2.72073 l -3.4531,3.45704 c -0.31401,0.31441 -0.41868,0.73339 -0.20934,1.15249 0.10467,0.31442 0.52321,0.62858 0.94172,0.62858 h 5.23208 c 0.62789,0 1.04642,-0.41895 1.04642,-1.04768 0,-0.52376 -0.41853,-1.04754 -1.04642,-1.04754 H 13.682 L 17.13508,7.94108 C 17.4491,7.62666 17.55376,7.20768 17.34442,6.78858 17.23976,6.47416 16.82123,6.16 16.4027,6.16 h -5.23208 c -0.52321,0 -1.04642,0.41895 -1.04642,1.04768 0,0.62858 0.52321,1.04754 1.04642,1.04754 z"
       id="path4-3-5"
       style="fill:#d6dbf1;fill-opacity:1;stroke-width:0.0373933" />
    <path
       d="m 4.7370406,12.62235 h 1.63243 l -2.07185,2.07185 c -0.18841,0.18843 -0.25121,0.43952 -0.12561,0.69069 0.0628,0.18844 0.31393,0.37672 0.56504,0.37672 h 3.13924 c 0.37674,0 0.62785,-0.25108 0.62785,-0.62789 0,-0.3139 -0.25111,-0.6278 -0.62785,-0.6278 h -1.63242 l 2.07185,-2.07184 c 0.1884,-0.18843 0.2512,-0.43953 0.1256,-0.69069 -0.0628,-0.18845 -0.31391,-0.37672 -0.56503,-0.37672 h -3.13925 c -0.31392,0 -0.62785,0.25108 -0.62785,0.62788 0,0.37672 0.31393,0.6278 0.62785,0.6278 z"
       id="path4-3-6-3"
       style="fill:#d6dbf1;fill-opacity:1;stroke-width:0.0224231" />
  </g>
</svg>
